<svg width="57" height="57" viewBox="0 0 57 57" fill="none" xmlns="http://www.w3.org/2000/svg">
<circle cx="28.5" cy="28.5" r="28.5" fill="#DEF358"/>
<rect width="24" height="24" transform="translate(17 16)" fill="#DEF358"/>
<path d="M20 26C19.9999 25.709 20.0633 25.4216 20.1858 25.1577C20.3082 24.8938 20.4868 24.6598 20.709 24.472L27.709 18.473C28.07 18.1679 28.5274 18.0005 29 18.0005C29.4726 18.0005 29.93 18.1679 30.291 18.473L37.291 24.472C37.5132 24.6598 37.6918 24.8938 37.8142 25.1577C37.9367 25.4216 38.0001 25.709 38 26V35C38 35.5304 37.7893 36.0391 37.4142 36.4142C37.0391 36.7893 36.5304 37 36 37H22C21.4696 37 20.9609 36.7893 20.5858 36.4142C20.2107 36.0391 20 35.5304 20 35V26Z" stroke="#383838" stroke-width="2" stroke-linecap="round" stroke-linejoin="round"/>
<path d="M29 33L29 31L29 29" stroke="#383838" stroke-width="2" stroke-linecap="square"/>
</svg>
